<svg width="300" height="300" viewBox="0 0 300 300" fill="none" xmlns="http://www.w3.org/2000/svg">
<g clip-path="url(#clip0_2_2)">
<path d="M154.1 285.368C136.995 285.368 120.943 283.789 105.944 280.632C90.9443 277.737 77.6553 272.869 66.0768 266.027C54.7615 259.185 45.8145 250.238 39.2358 239.186C32.6571 227.871 29.3677 214.055 29.3677 197.74C29.3677 196.688 29.3677 195.503 29.3677 194.188C29.3677 192.872 29.4993 191.819 29.7625 191.03H98.0492C98.0492 191.819 97.9177 192.872 97.6545 194.188C97.6545 195.24 97.6545 196.161 97.6545 196.951C97.6545 205.371 99.7597 212.213 103.97 217.476C108.444 222.476 114.628 226.16 122.522 228.528C130.416 230.634 139.627 231.686 150.152 231.686C155.942 231.686 161.336 231.423 166.336 230.897C171.336 230.37 175.809 229.449 179.757 228.134C183.704 226.818 187.125 225.239 190.019 223.397C193.177 221.292 195.414 218.923 196.73 216.292C198.308 213.397 199.098 210.108 199.098 206.424C199.098 200.372 196.73 195.372 191.993 191.425C187.519 187.477 181.335 184.188 173.441 181.557C165.81 178.925 157.126 176.425 147.389 174.057C137.653 171.689 127.522 169.189 116.996 166.557C106.47 163.926 96.3388 160.636 86.6023 156.689C76.8659 152.742 68.0504 147.742 60.156 141.69C52.5247 135.637 46.3407 128.138 41.6041 119.191C37.1306 109.98 34.8938 98.9282 34.8938 86.034C34.8938 71.824 37.92 59.5877 43.9724 49.3249C50.0248 38.799 58.314 30.2467 68.8399 23.668C79.6289 17.0894 91.9968 12.3527 105.944 9.45808C119.89 6.3003 134.758 4.72141 150.547 4.72141C166.073 4.72141 180.546 6.3003 193.967 9.45808C207.65 12.6159 219.755 17.6157 230.281 24.4575C240.807 31.0362 248.964 39.4569 254.754 49.7196C260.806 59.7192 263.964 71.824 264.227 86.034V90.7707H196.335V88.0076C196.335 81.9552 194.624 76.6923 191.203 72.2188C188.046 67.4821 183.177 63.798 176.599 61.1666C170.02 58.2719 161.863 56.8246 152.126 56.8246C142.39 56.8246 134.1 57.7456 127.259 59.5877C120.68 61.4297 115.549 64.0612 111.864 67.4821C108.444 70.903 106.733 74.9818 106.733 79.7185C106.733 85.5077 108.97 90.2444 113.443 93.9284C118.18 97.6125 124.496 100.77 132.39 103.402C140.284 106.033 149.1 108.533 158.836 110.901C168.573 113.007 178.572 115.375 188.835 118.006C199.361 120.375 209.492 123.533 219.229 127.48C228.965 131.164 237.781 136.032 245.675 142.084C253.569 147.874 259.753 155.11 264.227 163.794C268.964 172.478 271.332 183.004 271.332 195.372C271.332 216.95 266.2 234.318 255.938 247.475C245.938 260.632 231.991 270.237 214.097 276.29C196.466 282.342 176.467 285.368 154.1 285.368Z" fill="white"/>
</g>
<defs>
<clipPath id="clip0_2_2">
<rect width="300" height="300" fill="white"/>
</clipPath>
</defs>
</svg>
